<?xml version="1.0" standalone="yes"?>
<svg xmlns="http://www.w3.org/2000/svg" width="332" height="175">
<path style="fill:#ffffff; stroke:none;" d="M0 0L0 175L332 175L332 0L0 0z"/>
<path style="fill:#08376b; stroke:none;" d="M158 14L158 152L160 152L160 14L158 14z"/>
<path style="fill:#67d0f1; stroke:none;" d="M69.6667 23.3333C69.2222 23.7778 70.2778 23.7222 70.3333 23.6667C70.7778 23.2222 69.7222 23.2778 69.6667 23.3333z"/>
<path style="fill:#35c0ed; stroke:none;" d="M17 71C23.4729 71.0229 26.7709 71.9643 27 79L31 79L31 119C33.9516 116.138 35.7604 112.915 37 109L39 109C40.2948 112.537 42.2335 115.678 44 119C45.7687 114.785 45 109.536 45 105L45 79L50 79L50 71L58 71L58 79L63 79L63 119C65.7607 116.061 67.6157 112.781 69 109L71 109C72.1584 112.636 74.1574 115.674 76 119C77.7687 114.785 77 109.536 77 105L77 79L82 79L82 71L90 71L90 79L95 79L95 119C97.6122 116.004 99.5933 112.716 101 109L103 109C104.152 112.64 106.011 115.748 108 119C109.769 114.785 109 109.536 109 105L109 79L113 79C113.229 71.9643 116.527 71.0229 123 71C123 67.7447 123.737 63.3657 122.397 60.3248C120.72 56.5201 115.297 53.8918 112 51.6698C103.948 46.2425 95.9097 40.7734 88 35.1412C83.4848 31.9261 75.7925 24.3624 70 24.5054C63.9427 24.655 56.7401 31.9679 52 35.2801C43.7182 41.067 35.2497 46.59 27 52.4244C24.0251 54.5283 19.1421 56.8475 17.6034 60.3256C16.2603 63.3616 17 67.7482 17 71z"/>
<path style="fill:#8ddcf5; stroke:none;" d="M66 25L67 26L66 25M63 27L64 28L63 27z"/>
<path style="fill:#a6e3f7; stroke:none;" d="M69.6667 27.3333C69.2222 27.7778 70.2778 27.7222 70.3333 27.6667C70.7778 27.2222 69.7222 27.2778 69.6667 27.3333z"/>
<path style="fill:#8ddcf5; stroke:none;" d="M76 27L77 28L76 27z"/>
<path style="fill:#ffffff; stroke:none;" d="M21 68L119 68C118.87 56.9904 107.123 52.5733 99 46.9745C92.9789 42.8246 86.9708 38.6464 81 34.4244C78.1107 32.3813 74.6027 29.2146 71 28.6435C66.0194 27.8541 60.7594 33.3834 57 35.9745C48.6778 41.7105 40.2342 47.2779 32 53.1412C25.8007 57.5555 21.0962 59.8607 21 68z"/>
<path style="fill:#b2c1d1; stroke:none;" d="M193 28L194 29L193 28z"/>
<path style="fill:#6582a2; stroke:none;" d="M194 28L195 29L194 28z"/>
<path style="fill:#08376b; stroke:none;" d="M196 55C201.944 57.3145 210.585 52.0828 206.817 45.1049C204.152 40.1691 197.718 40.7186 194.377 36.723C191.478 33.2578 195.153 29.5355 198.997 29.777C201.987 29.9649 204.477 32.6302 207 34C203.235 26.4675 187.542 26.1483 190.323 36.8958C192.009 43.4156 203.199 42.0121 204.079 49C204.633 53.4036 199.195 54.6439 196 55z"/>
<path style="fill:#557599; stroke:none;" d="M201 28L202 29L201 28z"/>
<path style="fill:#a3b4c8; stroke:none;" d="M202 28L203 29L202 28z"/>
<path style="fill:#9ae0f6; stroke:none;" d="M60 29L61 30L60 29z"/>
<path style="fill:#99dff6; stroke:none;" d="M66 29L67 30L66 29M73 29L74 30L73 29z"/>
<path style="fill:#9ae0f6; stroke:none;" d="M79 29L80 30L79 29z"/>
<path style="fill:#466990; stroke:none;" d="M192 29L193 30L192 29z"/>
<path style="fill:#839ab4; stroke:none;" d="M197.667 29.3333C197.222 29.7778 198.278 29.7222 198.333 29.6667C198.778 29.2222 197.722 29.2778 197.667 29.3333z"/>
<path style="fill:#355b86; stroke:none;" d="M199.667 29.3333C199.222 29.7778 200.278 29.7222 200.333 29.6667C200.778 29.2222 199.722 29.2778 199.667 29.3333z"/>
<path style="fill:#b1c0d0; stroke:none;" d="M204 29L205 30L204 29z"/>
<path style="fill:#a2b3c7; stroke:none;" d="M194 30L195 31L194 30z"/>
<path style="fill:#6481a2; stroke:none;" d="M202 30L203 31L202 30z"/>
<path style="fill:#a2b3c7; stroke:none;" d="M205 30L206 31L205 30z"/>
<path style="fill:#45688f; stroke:none;" d="M285 30L285 36C285.951 33.7147 285.951 32.2853 285 30z"/>
<path style="fill:#08376b; stroke:none;" d="M286 30L286 36L282 36C287.507 41.0452 284.005 45.8971 286.603 51.8519C288.078 55.2313 291.844 55.4511 294 53C285.352 53.2802 285.91 39.1524 293 37C291.231 36.2211 289.964 36.0876 288 36L288 30L286 30z"/>
<path style="fill:#839ab4; stroke:none;" d="M288 30L288 36C288.951 33.7147 288.951 32.2853 288 30z"/>
<path style="fill:#a7e4f7; stroke:none;" d="M57 31L58 32L57 31z"/>
<path style="fill:#8ddbf5; stroke:none;" d="M63 31L64 32L63 31M76 31L77 32L76 31z"/>
<path style="fill:#a7e4f7; stroke:none;" d="M82 31L83 32L82 31z"/>
<path style="fill:#92a7be; stroke:none;" d="M203 31L204 32L203 31z"/>
<path style="fill:#b1c0d0; stroke:none;" d="M206 31L207 32L206 31z"/>
<path style="fill:#a2b3c7; stroke:none;" d="M189 32L190 33L189 32z"/>
<path style="fill:#b1c0d0; stroke:none;" d="M192 32L193 33L192 32z"/>
<path style="fill:#45688f; stroke:none;" d="M204 32L205 33L204 32z"/>
<path style="fill:#b3e7f8; stroke:none;" d="M85 33L86 34L85 33z"/>
<path style="fill:#45688f; stroke:none;" d="M189 33L189 37C189.71 35.2405 189.71 34.7595 189 33z"/>
<path style="fill:#92a7be; stroke:none;" d="M204 33L205 34L204 33z"/>
<path style="fill:#81d8f4; stroke:none;" d="M53 34L54 35L53 34z"/>
<path style="fill:#b3e7f8; stroke:none;" d="M59 34L60 35L59 34z"/>
<path style="fill:#b1c0d0; stroke:none;" d="M192 35L193 36L192 35z"/>
<path style="fill:#c2cdda; stroke:none;" d="M222 35C223.248 35.6848 223.548 35.7488 225 36C223.752 35.3152 223.452 35.2512 222 35M233 35C234.506 35.683 235.315 35.8259 237 36C235.494 35.317 234.685 35.1741 233 35M252 35C253.769 35.7789 255.036 35.9124 257 36C255.231 35.2211 253.964 35.0876 252 35M275 35C276.248 35.6848 276.549 35.7488 278 36C276.752 35.3152 276.452 35.2512 275 35z"/>
<path style="fill:#8ddcf5; stroke:none;" d="M50 36L51 37L50 36z"/>
<path style="fill:#a6e3f7; stroke:none;" d="M56 36L57 37L56 36M83 36L84 37L83 36z"/>
<path style="fill:#8ddcf5; stroke:none;" d="M89 36L90 37L89 36z"/>
<path style="fill:#08376b; stroke:none;" d="M214 36L214 55L217 55C217 48.7008 218.024 42.2065 217 36L214 36z"/>
<path style="fill:#839ab4; stroke:none;" d="M217 36L217 39C217.696 37.4463 217.696 37.5537 217 36z"/>
<path style="fill:#557599; stroke:none;" d="M220 36L221 37L220 36z"/>
<path style="fill:#08376b; stroke:none;" d="M219 37C227.723 40.044 226 46.8498 226 55L229 55C229 46.5867 231.542 34.1622 219 37z"/>
<path style="fill:#849bb5; stroke:none;" d="M226 36L227 37L226 36z"/>
<path style="fill:#c1ccda; stroke:none;" d="M231 36L232 37L231 36z"/>
<path style="fill:#08376b; stroke:none;" d="M230 39C240.174 36.0486 238 48.3297 238 55L241 55C241 50.3729 241.938 44.5615 240.566 40.1088C238.9 34.697 233.071 35.8671 230 39z"/>
<path style="fill:#6582a2; stroke:none;" d="M238 36L239 37L238 36z"/>
<path style="fill:#748eac; stroke:none;" d="M250 36L251 37L250 36z"/>
<path style="fill:#08376b; stroke:none;" d="M248 40C254.512 37.4728 258.703 36.9053 260 45C257.205 43.8159 254.123 42.4263 251.059 43.608C242.684 46.8382 248.821 55.3094 255 56C253.633 54.7213 251.752 53.4497 250.833 51.7855C247.547 45.8406 257.417 41.8353 258.882 48.9946C259.238 50.7341 258.5 52.3845 258 54L262 55C262 50.45 263.365 43.1885 260.972 39.1481C257.961 34.0627 250.517 35.6915 248 40z"/>
<path style="fill:#b1c0d0; stroke:none;" d="M259 36L260 37L259 36z"/>
<path style="fill:#c1ccda; stroke:none;" d="M268 36L268 56C270.087 51.0272 270.087 40.9728 268 36z"/>
<path style="fill:#08376b; stroke:none;" d="M269 36L269 55L272 55L272 36L269 36z"/>
<path style="fill:#6582a2; stroke:none;" d="M274 36L273 38C274.263 37.0286 274.392 37.3063 274 36z"/>
<path style="fill:#08376b; stroke:none;" d="M273 39L280 38C277.087 35.9132 275.451 36.5229 273 39z"/>
<path style="fill:#a2b3c7; stroke:none;" d="M279 36L280 37L279 36z"/>
<path style="fill:#d0d9e3; stroke:none;" d="M281.333 36.6667C281.278 36.7223 281.222 37.7777 281.667 37.3333C281.722 37.2779 281.778 36.2222 281.333 36.6667M293.333 36.6667C293.278 36.7223 293.222 37.7777 293.667 37.3333C293.722 37.2779 293.778 36.2222 293.333 36.6667z"/>
<path style="fill:#a2b3c7; stroke:none;" d="M189 37L190 38L189 37z"/>
<path style="fill:#b1c0d0; stroke:none;" d="M194 37L195 38L194 37z"/>
<path style="fill:#c1ccda; stroke:none;" d="M218 37L219 38L218 37z"/>
<path style="fill:#45688f; stroke:none;" d="M221 37C222.248 37.6848 222.548 37.7488 224 38C222.752 37.3152 222.452 37.2512 221 37z"/>
<path style="fill:#557599; stroke:none;" d="M227 37L228 38L227 37z"/>
<path style="fill:#a2b3c7; stroke:none;" d="M230 37L231 38L230 37z"/>
<path style="fill:#45688f; stroke:none;" d="M233 37C234.248 37.6848 234.548 37.7488 236 38C234.752 37.3152 234.452 37.2512 233 37z"/>
<path style="fill:#a2b3c7; stroke:none;" d="M248 37L249 38L248 37z"/>
<path style="fill:#6481a2; stroke:none;" d="M252 37L253 38L252 37z"/>
<path style="fill:#c1ccda; stroke:none;" d="M253 37C254.506 37.683 255.315 37.8259 257 38C255.494 37.317 254.685 37.1741 253 37z"/>
<path style="fill:#6582a2; stroke:none;" d="M260 37L261 38L260 37z"/>
<path style="fill:#45688f; stroke:none;" d="M282 37C283.248 37.6848 283.549 37.7488 285 38C283.752 37.3152 283.452 37.2512 282 37M289 37C290.506 37.683 291.315 37.8259 293 38C291.494 37.317 290.685 37.1741 289 37z"/>
<path style="fill:#9ae0f6; stroke:none;" d="M47 38L48 39L47 38z"/>
<path style="fill:#99dff6; stroke:none;" d="M53 38L54 39L53 38M86 38L87 39L86 38z"/>
<path style="fill:#9ae0f6; stroke:none;" d="M92 38L93 39L92 38z"/>
<path style="fill:#466990; stroke:none;" d="M195 38L196 39L195 38z"/>
<path style="fill:#b2c1d1; stroke:none;" d="M196 38L197 39L196 38z"/>
<path style="fill:#174374; stroke:none;" d="M218 38L219 39L218 38z"/>
<path style="fill:#547598; stroke:none;" d="M219 38L220 39L219 38z"/>
<path style="fill:#c1ccda; stroke:none;" d="M224 38L225 39L224 38z"/>
<path style="fill:#839ab4; stroke:none;" d="M228 38L229 39L228 38z"/>
<path style="fill:#c1ccda; stroke:none;" d="M229 38L230 39L229 38z"/>
<path style="fill:#6481a2; stroke:none;" d="M231 38L232 39L231 38z"/>
<path style="fill:#466990; stroke:none;" d="M240 38L241 39L240 38z"/>
<path style="fill:#a2b3c7; stroke:none;" d="M247.333 38.6667C247.278 38.7222 247.222 39.7778 247.667 39.3333C247.722 39.2777 247.778 38.2222 247.333 38.6667z"/>
<path style="fill:#45688f; stroke:none;" d="M258 38L259 39L258 38z"/>
<path style="fill:#839ab4; stroke:none;" d="M261 38L262 39L261 38z"/>
<path style="fill:#c1ccda; stroke:none;" d="M272 38L273 39L272 38z"/>
<path style="fill:#92a7be; stroke:none;" d="M274 38L275 39L274 38M277 38L278 39L277 38z"/>
<path style="fill:#839ab4; stroke:none;" d="M279 38L280 39L279 38z"/>
<path style="fill:#45688f; stroke:none;" d="M285 38L285 52C286.667 48.0279 286.667 41.9721 285 38z"/>
<path style="fill:#839ab4; stroke:none;" d="M288 38L288 53C289.74 48.8523 289.74 42.1477 288 38z"/>
<path style="fill:#748eac; stroke:none;" d="M198 39L199 40L198 39z"/>
<path style="fill:#547598; stroke:none;" d="M218 39L219 40L218 39z"/>
<path style="fill:#839ab4; stroke:none;" d="M225 39L226 40L225 39z"/>
<path style="fill:#45688f; stroke:none;" d="M229.667 39.3333C229.222 39.7778 230.278 39.7222 230.333 39.6667C230.778 39.2222 229.722 39.2778 229.667 39.3333z"/>
<path style="fill:#a2b3c7; stroke:none;" d="M237 39L238 40L237 39z"/>
<path style="fill:#c1ccda; stroke:none;" d="M250 39L251 40L250 39M258 39L259 40L258 39z"/>
<path style="fill:#45688f; stroke:none;" d="M272.333 39.6667C272.278 39.7223 272.222 40.7777 272.667 40.3333C272.722 40.2778 272.778 39.2222 272.333 39.6667z"/>
<path style="fill:#b1c0d0; stroke:none;" d="M273 39L274 40L273 39M278 39L279 40L278 39z"/>
<path style="fill:#a7e4f7; stroke:none;" d="M44 40L45 41L44 40z"/>
<path style="fill:#8ddbf5; stroke:none;" d="M50 40L51 41L50 40M89 40L90 41L89 40z"/>
<path style="fill:#9ae0f6; stroke:none;" d="M95 40L96 41L95 40z"/>
<path style="fill:#547598; stroke:none;" d="M192 40L193 41L192 40z"/>
<path style="fill:#a3b4c8; stroke:none;" d="M201 40L202 41L201 40z"/>
<path style="fill:#c1ccda; stroke:none;" d="M241 40L242 41L241 40z"/>
<path style="fill:#738eab; stroke:none;" d="M248.667 40.3333C248.222 40.7778 249.278 40.7222 249.333 40.6667C249.778 40.2222 248.722 40.2778 248.667 40.3333z"/>
<path style="fill:#839ab4; stroke:none;" d="M262 40L262 56C263.812 51.6811 263.812 44.3189 262 40z"/>
<path style="fill:#c1ccda; stroke:none;" d="M193 41L194 42L193 41z"/>
<path style="fill:#45688f; stroke:none;" d="M194 41L195 42L194 41z"/>
<path style="fill:#849bb5; stroke:none;" d="M203 41L204 42L203 41z"/>
<path style="fill:#839ab4; stroke:none;" d="M241 41L241 56C242.74 51.8523 242.74 45.1477 241 41z"/>
<path style="fill:#45688f; stroke:none;" d="M259 41L258 45C259.656 43.5957 259.751 43.0465 259 41z"/>
<path style="fill:#c1ccda; stroke:none;" d="M272.333 41.6667C272.278 41.7223 272.222 42.7777 272.667 42.3333C272.722 42.2778 272.778 41.2222 272.333 41.6667z"/>
<path style="fill:#8ddbf5; stroke:none;" d="M92 42L93 43L92 42z"/>
<path style="fill:#a7e4f7; stroke:none;" d="M98 42L99 43L98 42z"/>
<path style="fill:#839ab4; stroke:none;" d="M196 42L197 43L196 42z"/>
<path style="fill:#c1ccda; stroke:none;" d="M205 42L206 43L205 42z"/>
<path style="fill:#839ab4; stroke:none;" d="M217 42L217 56C218.667 52.0279 218.667 45.9721 217 42M229 42L229 56C230.667 52.0279 230.667 45.9721 229 42z"/>
<path style="fill:#849bb5; stroke:none;" d="M252 42C253.248 42.6848 253.548 42.7488 255 43C253.752 42.3152 253.452 42.2512 252 42z"/>
<path style="fill:#6481a2; stroke:none;" d="M199 43L200 44L199 43z"/>
<path style="fill:#a2b3c7; stroke:none;" d="M206 43L207 44L206 43z"/>
<path style="fill:#a3b4c8; stroke:none;" d="M249 43L250 44L249 43M257 43L258 44L257 43z"/>
<path style="fill:#35c0ed; stroke:none;" d="M67.0586 45.0432C58.5989 49.386 65.6582 61.804 73.8519 56.9722C80.8593 52.8399 74.2005 41.3769 67.0586 45.0432z"/>
<path style="fill:#a7e4f7; stroke:none;" d="M72 44L73 45L72 44z"/>
<path style="fill:#839ab4; stroke:none;" d="M201 44L202 45L201 44z"/>
<path style="fill:#6582a2; stroke:none;" d="M248 44L249 45L248 44z"/>
<path style="fill:#6481a2; stroke:none;" d="M252 44L253 45L252 44z"/>
<path style="fill:#c1ccda; stroke:none;" d="M253 44C254.248 44.6848 254.548 44.7488 256 45C254.752 44.3152 254.452 44.2512 253 44z"/>
<path style="fill:#547598; stroke:none;" d="M256 44L257 45L256 44z"/>
<path style="fill:#8ddcf5; stroke:none;" d="M37 45L38 46L37 45z"/>
<path style="fill:#a6e3f7; stroke:none;" d="M43 45L44 46L43 45z"/>
<path style="fill:#b3e7f8; stroke:none;" d="M65 45L66 46L65 45M74 45L75 46L74 45M96 45L97 46L96 45z"/>
<path style="fill:#81d8f4; stroke:none;" d="M102 45L103 46L102 45z"/>
<path style="fill:#466990; stroke:none;" d="M207 45L208 46L207 45z"/>
<path style="fill:#738eab; stroke:none;" d="M247 45L248 46L247 45z"/>
<path style="fill:#ffffff; stroke:none;" d="M251.743 46.0324C247.889 49.0751 252.381 55.6212 256.682 52.9529C261.506 49.9606 255.998 42.6734 251.743 46.0324z"/>
<path style="fill:#a2b3c7; stroke:none;" d="M257 45L258 46L257 45z"/>
<path style="fill:#b3e7f8; stroke:none;" d="M64 46L65 47L64 46M75 46L76 47L75 46z"/>
<path style="fill:#a2b3c7; stroke:none;" d="M250 46L251 47L250 46z"/>
<path style="fill:#92a7be; stroke:none;" d="M258 46L259 47L258 46z"/>
<path style="fill:#9ae0f6; stroke:none;" d="M34 47L35 48L34 47z"/>
<path style="fill:#99dff6; stroke:none;" d="M40 47L41 48L40 47z"/>
<path style="fill:#8ddbf5; stroke:none;" d="M69.6667 47.3333C69.2222 47.7778 70.2778 47.7222 70.3333 47.6667C70.7778 47.2222 69.7222 47.2778 69.6667 47.3333z"/>
<path style="fill:#a6e3f7; stroke:none;" d="M99 47L100 48L99 47z"/>
<path style="fill:#8ddcf5; stroke:none;" d="M105 47L106 48L105 47z"/>
<path style="fill:#a2b3c7; stroke:none;" d="M204 47L205 48L204 47z"/>
<path style="fill:#c1ccda; stroke:none;" d="M208 47L208 50C208.696 48.4463 208.696 48.5537 208 47z"/>
<path style="fill:#45688f; stroke:none;" d="M246 47L246 52C246.83 49.9695 246.83 49.0305 246 47z"/>
<path style="fill:#99dff6; stroke:none;" d="M67 48L68 49L67 48z"/>
<path style="fill:#ffffff; stroke:none;" d="M68.3326 49.0856C64.8572 51.1404 68.4338 55.8262 71.6674 53.9144C75.1427 51.8596 71.5662 47.1738 68.3326 49.0856z"/>
<path style="fill:#a6e3f7; stroke:none;" d="M72 48L73 49L72 48z"/>
<path style="fill:#c2cdda; stroke:none;" d="M188 48C189.248 48.6848 189.548 48.7488 191 49C189.752 48.3152 189.452 48.2512 188 48z"/>
<path style="fill:#839ab4; stroke:none;" d="M249 48L249 51C249.696 49.4463 249.696 49.5537 249 48z"/>
<path style="fill:#45688f; stroke:none;" d="M259 48L259 51C259.696 49.4463 259.696 49.5537 259 48z"/>
<path style="fill:#a7e4f7; stroke:none;" d="M31 49L32 50L31 49z"/>
<path style="fill:#8ddbf5; stroke:none;" d="M37 49L38 50L37 49M73 49L74 50L73 49z"/>
<path style="fill:#cceffb; stroke:none;" d="M77 49L77 54C77.8299 51.9695 77.8299 51.0305 77 49z"/>
<path style="fill:#99dff6; stroke:none;" d="M102 49L103 50L102 49z"/>
<path style="fill:#9ae0f6; stroke:none;" d="M108 49L109 50L108 49z"/>
<path style="fill:#08376b; stroke:none;" d="M188 49C189.783 52.3305 191.349 53.9532 195 55C192.852 52.5613 190.875 50.5099 188 49z"/>
<path style="fill:#45688f; stroke:none;" d="M190 49L191 50L190 49z"/>
<path style="fill:#cceffb; stroke:none;" d="M62 50L62 53C62.6961 51.4463 62.6961 51.5537 62 50z"/>
<path style="fill:#6481a2; stroke:none;" d="M188 50L189 51L188 50z"/>
<path style="fill:#b3e7f8; stroke:none;" d="M28 51L29 52L28 51z"/>
<path style="fill:#8ddbf5; stroke:none;" d="M105 51L106 52L105 51z"/>
<path style="fill:#a7e4f7; stroke:none;" d="M111 51L112 52L111 51z"/>
<path style="fill:#c1ccda; stroke:none;" d="M188 51L189 52L188 51z"/>
<path style="fill:#839ab4; stroke:none;" d="M191 51L192 52L191 51z"/>
<path style="fill:#a2b3c7; stroke:none;" d="M204 51L205 52L204 51z"/>
<path style="fill:#6481a2; stroke:none;" d="M207 51L208 52L207 51z"/>
<path style="fill:#738eab; stroke:none;" d="M189 52L190 53L189 52z"/>
<path style="fill:#a2b3c7; stroke:none;" d="M192 52L193 53L192 52z"/>
<path style="fill:#92a7be; stroke:none;" d="M250 52L251 53L250 52z"/>
<path style="fill:#6582a2; stroke:none;" d="M258 52L259 53L258 52z"/>
<path style="fill:#b1c0d0; stroke:none;" d="M285 52L286 53L285 52z"/>
<path style="fill:#c1ccda; stroke:none;" d="M292 52L293 53L292 52z"/>
<path style="fill:#6582a2; stroke:none;" d="M293 52L294 53L293 52z"/>
<path style="fill:#81d8f4; stroke:none;" d="M73 53L74 54L73 53z"/>
<path style="fill:#6481a2; stroke:none;" d="M190 53L191 54L190 53z"/>
<path style="fill:#557599; stroke:none;" d="M193 53L194 54L193 53z"/>
<path style="fill:#a3b4c8; stroke:none;" d="M202 53L203 54L202 53z"/>
<path style="fill:#738eab; stroke:none;" d="M247 53L248 54L247 53z"/>
<path style="fill:#93a8be; stroke:none;" d="M251 53L252 54L251 53z"/>
<path style="fill:#557599; stroke:none;" d="M257 53L258 54L257 53z"/>
<path style="fill:#45688f; stroke:none;" d="M286 53L287 54L286 53z"/>
<path style="fill:#738eab; stroke:none;" d="M294 53L295 54L294 53z"/>
<path style="fill:#8ddcf5; stroke:none;" d="M24 54L25 55L24 54z"/>
<path style="fill:#a6e3f7; stroke:none;" d="M30 54L31 55L30 54z"/>
<path style="fill:#9ae0f6; stroke:none;" d="M67 54L68 55L67 54M72 54L73 55L72 54z"/>
<path style="fill:#a2b3c7; stroke:none;" d="M191 54L192 55L191 54z"/>
<path style="fill:#466990; stroke:none;" d="M194 55C196.34 55.5656 198.571 55.1761 201 55C198.413 53.9346 196.679 54.2185 194 55z"/>
<path style="fill:#45688f; stroke:none;" d="M204 54L205 55L204 54z"/>
<path style="fill:#6481a2; stroke:none;" d="M248 54L249 55L248 54z"/>
<path style="fill:#849bb5; stroke:none;" d="M253 54C254.248 54.6848 254.548 54.7488 256 55C254.752 54.3152 254.452 54.2512 253 54z"/>
<path style="fill:#164273; stroke:none;" d="M256.667 54.3333C256.222 54.7779 257.278 54.7222 257.333 54.6667C257.778 54.2223 256.722 54.2777 256.667 54.3333z"/>
<path style="fill:#a2b3c7; stroke:none;" d="M258 54L259 55L258 54z"/>
<path style="fill:#738eab; stroke:none;" d="M259.333 54.6667C259.278 54.7222 259.222 55.7778 259.667 55.3333C259.722 55.2777 259.778 54.2223 259.333 54.6667z"/>
<path style="fill:#45688f; stroke:none;" d="M287 54L288 55L287 54z"/>
<path style="fill:#81d8f4; stroke:none;" d="M69.6667 55.3333C69.2222 55.7778 70.2778 55.7222 70.3333 55.6667C70.7778 55.2222 69.7222 55.2778 69.6667 55.3333z"/>
<path style="fill:#b1c0d0; stroke:none;" d="M193 55L194 56L193 55z"/>
<path style="fill:#738eab; stroke:none;" d="M201.667 55.3333C201.222 55.7777 202.278 55.7223 202.333 55.6667C202.778 55.2222 201.722 55.2778 201.667 55.3333z"/>
<path style="fill:#45688f; stroke:none;" d="M214 55C215.248 55.6848 215.548 55.7488 217 56C215.752 55.3152 215.452 55.2512 214 55M226 55C227.248 55.6848 227.548 55.7488 229 56C227.752 55.3152 227.452 55.2512 226 55M238 55C239.248 55.6848 239.548 55.7488 241 56C239.752 55.3152 239.452 55.2512 238 55z"/>
<path style="fill:#c1ccda; stroke:none;" d="M249 55L250 56L249 55z"/>
<path style="fill:#547598; stroke:none;" d="M250 55L251 56L250 55z"/>
<path style="fill:#45688f; stroke:none;" d="M255 55L256 56L255 55z"/>
<path style="fill:#92a7be; stroke:none;" d="M256 55L257 56L256 55z"/>
<path style="fill:#45688f; stroke:none;" d="M260.667 55.3333C260.222 55.7779 261.278 55.7222 261.333 55.6667C261.778 55.2223 260.722 55.2777 260.667 55.3333M269 55C270.248 55.6848 270.548 55.7488 272 56C270.752 55.3152 270.452 55.2512 269 55z"/>
<path style="fill:#c1ccda; stroke:none;" d="M288 55L289 56L288 55z"/>
<path style="fill:#6481a2; stroke:none;" d="M289 55C290.248 55.6848 290.548 55.7488 292 56C290.752 55.3152 290.452 55.2512 289 55z"/>
<path style="fill:#b1c0d0; stroke:none;" d="M292 55L293 56L292 55z"/>
<path style="fill:#9ae0f6; stroke:none;" d="M21 56L22 57L21 56z"/>
<path style="fill:#99dff6; stroke:none;" d="M27 56L28 57L27 56z"/>
<path style="fill:#b3e7f8; stroke:none;" d="M64 56L65 57L64 56M75 56L76 57L75 56z"/>
<path style="fill:#a6e3f7; stroke:none;" d="M112 56L113 57L112 56z"/>
<path style="fill:#8ddcf5; stroke:none;" d="M118 56L119 57L118 56z"/>
<path style="fill:#a7e4f7; stroke:none;" d="M18 58L19 59L18 58z"/>
<path style="fill:#8ddbf5; stroke:none;" d="M24 58L25 59L24 58z"/>
<path style="fill:#66cff1; stroke:none;" d="M67 58C68.769 58.7789 70.0359 58.9124 72 59C70.231 58.2211 68.9641 58.0876 67 58z"/>
<path style="fill:#99dff6; stroke:none;" d="M115 58L116 59L115 58z"/>
<path style="fill:#9ae0f6; stroke:none;" d="M121 58L122 59L121 58z"/>
<path style="fill:#8ddbf5; stroke:none;" d="M21 60L22 61L21 60M118 60L119 61L118 60z"/>
<path style="fill:#cceffb; stroke:none;" d="M20 61L20 68C21.0595 65.4657 21.0595 63.5343 20 61M119 61L119 68C120.059 65.4657 120.059 63.5343 119 61z"/>
<path style="fill:#466990; stroke:none;" d="M188 69C191.163 70.3274 194.586 69.9996 198 70C194.837 68.6726 191.414 69.0004 188 69z"/>
<path style="fill:#849bb5; stroke:none;" d="M198 69C199.248 69.6848 199.548 69.7488 201 70C199.752 69.3152 199.452 69.2512 198 69z"/>
<path style="fill:#748eac; stroke:none;" d="M217 69L218 70L217 69z"/>
<path style="fill:#08376b; stroke:none;" d="M218 69C217.861 71.4529 217.929 71.6764 220 73L220 69L218 69z"/>
<path style="fill:#b1c0d0; stroke:none;" d="M220 69L221 70L220 69z"/>
<path style="fill:#08376b; stroke:none;" d="M253 69L253 73C254.797 73 254.522 72.9857 256 72L256 70L255 69L253 69z"/>
<path style="fill:#466990; stroke:none;" d="M255 69L256 70L255 69M300 69C301.248 69.6848 301.548 69.7488 303 70C301.752 69.3152 301.452 69.2512 300 69z"/>
<path style="fill:#839ab4; stroke:none;" d="M303 69L303 97C305.604 90.7934 305.604 75.2066 303 69z"/>
<path style="fill:#08376b; stroke:none;" d="M188 70L188 96C192.926 96 199.479 97.1115 203.996 94.821C212.264 90.6285 213.812 77.5553 205.815 72.2284C200.815 68.8982 193.702 70 188 70z"/>
<path style="fill:#466990; stroke:none;" d="M202 70L203 71L202 70z"/>
<path style="fill:#a3b4c8; stroke:none;" d="M203 70L204 71L203 70z"/>
<path style="fill:#d0d9e3; stroke:none;" d="M216.333 70.6667C216.278 70.7223 216.222 71.7777 216.667 71.3333C216.722 71.2778 216.778 70.2222 216.333 70.6667z"/>
<path style="fill:#355b86; stroke:none;" d="M220.333 70.6667C220.278 70.7223 220.222 71.7777 220.667 71.3333C220.722 71.2778 220.778 70.2222 220.333 70.6667z"/>
<path style="fill:#6481a2; stroke:none;" d="M252.333 70.6667C252.278 70.7223 252.222 71.7777 252.667 71.3333C252.722 71.2778 252.778 70.2222 252.333 70.6667z"/>
<path style="fill:#92a7be; stroke:none;" d="M256.333 70.6667C256.278 70.7222 256.222 71.7777 256.667 71.3333C256.722 71.2777 256.778 70.2222 256.333 70.6667z"/>
<path style="fill:#08376b; stroke:none;" d="M300 70L300 96L303 96L303 70L300 70z"/>
<path style="fill:#99dff6; stroke:none;" d="M17 71C19.8897 72.2129 22.8741 71.9983 26 72C23.1103 70.7871 20.1259 71.0017 17 71M30 71C34.974 73.0872 41.6381 72 47 72C42.026 69.9128 35.362 71 30 71M50 71C52.6127 72.0977 55.1645 71.9928 58 72C55.3873 70.9023 52.8355 71.0072 50 71M61 76C61.683 74.4939 61.8259 73.6852 62 72L78 72L78 76C80.2696 69.0741 62.2775 68.3451 61 76M82 71C84.6127 72.0977 87.1645 71.9928 90 72C87.3873 70.9023 84.8355 71.0072 82 71M93 71C97.974 73.0872 104.638 72 110 72L110 76C112.414 68.6344 97.2786 71 93 71M114 71C116.89 72.2129 119.874 71.9983 123 72C120.11 70.7871 117.126 71.0017 114 71z"/>
<path style="fill:#839ab4; stroke:none;" d="M191 71L191 95C193.349 89.4031 193.349 76.5969 191 71z"/>
<path style="fill:#ffffff; stroke:none;" d="M192 71L192 95C196.05 94.8234 200.608 94.4264 203.772 91.5702C208.602 87.2086 208.158 77.5374 202.891 73.7276C199.779 71.4763 195.699 71.1613 192 71z"/>
<path style="fill:#c1ccda; stroke:none;" d="M197.667 71.3333C197.222 71.7777 198.278 71.7222 198.333 71.6667C198.778 71.2222 197.722 71.2778 197.667 71.3333z"/>
<path style="fill:#738eab; stroke:none;" d="M199 71L200 72L199 71z"/>
<path style="fill:#b1c0d0; stroke:none;" d="M205 71L206 72L205 71z"/>
<path style="fill:#08376b; stroke:none;" d="M265 71C265 78.8059 261.193 98.6448 274 95C264.812 91.7553 268 79.3753 268 71L265 71z"/>
<path style="fill:#c1ccda; stroke:none;" d="M268 71L268 77C268.951 74.7147 268.951 73.2853 268 71z"/>
<path style="fill:#66cff1; stroke:none;" d="M26 72L26 79C27.0595 76.4657 27.0595 74.5343 26 72M29 72L29 76C29.7102 74.2405 29.7102 73.7595 29 72z"/>
<path style="fill:#ffffff; stroke:none;" d="M30 72L30 76L46 76L46 72L30 72z"/>
<path style="fill:#cceffb; stroke:none;" d="M46 72L46 76C46.7102 74.2405 46.7102 73.7595 46 72M50 72L50 79C51.0595 76.4657 51.0595 74.5343 50 72z"/>
<path style="fill:#ffffff; stroke:none;" d="M62 72L62 76L78 76L78 72L62 72z"/>
<path style="fill:#cceffb; stroke:none;" d="M93 72L93 76C93.7102 74.2405 93.7102 73.7595 93 72z"/>
<path style="fill:#ffffff; stroke:none;" d="M94 72L94 76L110 76L110 72L94 72z"/>
<path style="fill:#66cff1; stroke:none;" d="M113 72L113 79C114.059 76.4657 114.059 74.5343 113 72z"/>
<path style="fill:#b1c0d0; stroke:none;" d="M201 72L202 73L201 72z"/>
<path style="fill:#6582a2; stroke:none;" d="M206 72L207 73L206 72z"/>
<path style="fill:#839ab4; stroke:none;" d="M217 72L218 73L217 72z"/>
<path style="fill:#c1ccda; stroke:none;" d="M220 72L221 73L220 72z"/>
<path style="fill:#45688f; stroke:none;" d="M255 72L256 73L255 72z"/>
<path style="fill:#6481a2; stroke:none;" d="M203 73L204 74L203 73z"/>
<path style="fill:#92a7be; stroke:none;" d="M204 74L205 75L204 74z"/>
<path style="fill:#6582a2; stroke:none;" d="M208 74L209 75L208 74z"/>
<path style="fill:#547598; stroke:none;" d="M205 75L206 76L205 75z"/>
<path style="fill:#839ab4; stroke:none;" d="M209 75L210 76L209 75z"/>
<path style="fill:#c2cdda; stroke:none;" d="M234 76C235.248 76.6848 235.548 76.7488 237 77C235.752 76.3152 235.452 76.2512 234 76M283 76C284.769 76.7789 286.036 76.9124 288 77C286.231 76.221 284.964 76.0876 283 76z"/>
<path style="fill:#839ab4; stroke:none;" d="M206 77L207 78L206 77M210 77L211 78L210 77z"/>
<path style="fill:#45688f; stroke:none;" d="M217 77C217 81.7867 214.571 95.8366 220 97C217.212 91.9878 216.444 82.694 220 78C218.752 77.3152 218.452 77.2512 217 77z"/>
<path style="fill:#839ab4; stroke:none;" d="M220 77L220 97C222.087 92.0273 222.087 81.9727 220 77z"/>
<path style="fill:#c1ccda; stroke:none;" d="M231 77L232 78L231 77z"/>
<path style="fill:#557599; stroke:none;" d="M232 77L233 78L232 77z"/>
<path style="fill:#08376b; stroke:none;" d="M241 95C236.825 93.9762 232.798 95.0646 230.908 89.9807C229.252 85.5254 232.914 76.4957 238.772 79.9668C243.882 82.9951 243.56 100.17 238.852 103.353C235.713 105.475 232.078 103.09 229 102C232.177 107.034 240.647 107.53 243.821 101.891C247.161 95.9573 245 84.6627 245 78C242.908 78.4057 242.98 78.2167 242 80C240.662 78.841 239.673 77.846 237.885 77.4252C225.178 74.4346 223.295 97.1354 235.975 96.6883C237.886 96.6209 239.327 95.8002 241 95z"/>
<path style="fill:#93a8be; stroke:none;" d="M239 77L240 78L239 77z"/>
<path style="fill:#466990; stroke:none;" d="M242 77C243.248 77.6848 243.548 77.7488 245 78C243.752 77.3152 243.452 77.2512 242 77z"/>
<path style="fill:#c1ccda; stroke:none;" d="M245 77L245 98C247.153 92.8692 247.153 82.1308 245 77M252 77L252 97C254.087 92.0272 254.087 81.9728 252 77z"/>
<path style="fill:#466990; stroke:none;" d="M253 77C254.248 77.6848 254.548 77.7488 256 78C254.752 77.3152 254.452 77.2512 253 77z"/>
<path style="fill:#a2b3c7; stroke:none;" d="M261.333 77.6667C261.278 77.7222 261.222 78.7778 261.667 78.3333C261.722 78.2778 261.778 77.2222 261.333 77.6667z"/>
<path style="fill:#45688f; stroke:none;" d="M262 77L262 79L265 79L265 77L262 77z"/>
<path style="fill:#466990; stroke:none;" d="M268 77L268 79L273 79L273 77L268 77z"/>
<path style="fill:#c1ccda; stroke:none;" d="M280 77L281 78L280 77z"/>
<path style="fill:#557599; stroke:none;" d="M281 77L282 78L281 77z"/>
<path style="fill:#08376b; stroke:none;" d="M279 81C285.044 77.9833 289.425 78.4039 290 86C287.197 84.653 284.226 83.4515 281.109 84.7461C276.974 86.4634 275.96 92.3186 279.434 95.2569C282.944 98.2267 288.813 95.8122 293 96C293 91.404 294.31 84.2989 291.821 80.2284C288.764 75.2278 281.539 76.6538 279 81z"/>
<path style="fill:#6582a2; stroke:none;" d="M289 77L290 78L289 77z"/>
<path style="fill:#08376b; stroke:none;" d="M218 78L218 96L220 96L220 78L218 78z"/>
<path style="fill:#748eac; stroke:none;" d="M230 78L231 79L230 78z"/>
<path style="fill:#45688f; stroke:none;" d="M235 78L236 79L235 78z"/>
<path style="fill:#839ab4; stroke:none;" d="M236 78L237 79L236 78z"/>
<path style="fill:#08376b; stroke:none;" d="M253 78L253 96L256 96L256 78L253 78z"/>
<path style="fill:#557599; stroke:none;" d="M279 78L280 79L279 78z"/>
<path style="fill:#c1ccda; stroke:none;" d="M283 78C284.506 78.683 285.315 78.8259 287 79C285.494 78.3169 284.685 78.1741 283 78z"/>
<path style="fill:#738eab; stroke:none;" d="M287 78L288 79L287 78z"/>
<path style="fill:#cceffb; stroke:none;" d="M26 79C27.769 79.7789 29.0359 79.9124 31 80C29.231 79.2211 27.9641 79.0876 26 79M34 79L34 108C35.6384 105.166 35.0364 102.26 35.0039 99C34.9407 92.6679 35 86.3324 35 80L42 80C39.3873 78.9023 36.8355 79.0072 34 79z"/>
<path style="fill:#99dff6; stroke:none;" d="M45 79L45 120C46.552 116.301 46 111.983 46 108C46 99.4661 48.3062 86.879 45 79z"/>
<path style="fill:#cceffb; stroke:none;" d="M46 79C47.5061 79.683 48.3148 79.8259 50 80C48.494 79.317 47.6852 79.1741 46 79M58 79C59.5061 79.683 60.3148 79.8259 62 80L62 109C62 112.707 61.0452 117.418 64 120C60.9542 107.207 63 92.1222 63 79L58 79M66 79L66 108C67.7864 104.872 67.0401 101.548 67.0039 98C66.9425 92.0013 67 85.9991 67 80L74 80C71.3873 78.9023 68.8355 79.0072 66 79M77 79C77 92.726 75.5065 107.414 77 121C78.7687 116.785 78 111.536 78 107L78 80L82 80C80.231 79.2211 78.964 79.0876 77 79M90 79C91.506 79.683 92.3148 79.8259 94 80C92.494 79.317 91.6852 79.1741 90 79z"/>
<path style="fill:#99dff6; stroke:none;" d="M94 79L94 120C97.3062 112.121 95 99.5339 95 91C95 87.0172 95.552 82.6987 94 79z"/>
<path style="fill:#cceffb; stroke:none;" d="M98 79C100.332 79.9845 102.457 79.9813 105 80C105 89.1692 104.003 98.9347 105 108C108.31 100.112 106 87.5508 106 79L98 79M109 79C109 92.726 107.506 107.414 109 121C110.769 116.785 110 111.536 110 107L110 80L114 80C112.231 79.2211 110.964 79.0876 109 79z"/>
<path style="fill:#45688f; stroke:none;" d="M207 79L208 80L207 79z"/>
<path style="fill:#6582a2; stroke:none;" d="M229 79L230 80L229 79z"/>
<path style="fill:#839ab4; stroke:none;" d="M233 79L234 80L233 79z"/>
<path style="fill:#ffffff; stroke:none;" d="M234.147 80.0471C228.186 83.2976 231.442 97.9072 238.698 93.777C244.319 90.5768 241.491 76.0428 234.147 80.0471z"/>
<path style="fill:#6481a2; stroke:none;" d="M239 79L240 80L239 79z"/>
<path style="fill:#a2b3c7; stroke:none;" d="M241 79L242 80L241 79z"/>
<path style="fill:#c1ccda; stroke:none;" d="M268 79L268 93C269.667 89.0279 269.667 82.9721 268 79z"/>
<path style="fill:#355b86; stroke:none;" d="M278.333 79.6667C278.278 79.7222 278.222 80.7778 278.667 80.3333C278.722 80.2777 278.778 79.2222 278.333 79.6667z"/>
<path style="fill:#6481a2; stroke:none;" d="M281 79L282 80L281 79z"/>
<path style="fill:#c1ccda; stroke:none;" d="M288 79L289 80L288 79z"/>
<path style="fill:#ffffff; stroke:none;" d="M35 80L35 106C36.4336 104.607 37.0449 103.767 38 102L41 107C44.1089 99.5911 42 88.0245 42 80L35 80M67 80L67 105C68.1952 103.777 68.3164 103.58 69 102L71 102L73 108C76.2096 100.351 74 88.2878 74 80L67 80M98 80L98 107C99.4336 105.607 100.045 104.767 101 103L103 103L104 106C107.008 98.8314 105 87.7609 105 80L98 80z"/>
<path style="fill:#c1ccda; stroke:none;" d="M207 80L207 85C207.83 82.9695 207.83 82.0305 207 80z"/>
<path style="fill:#738eab; stroke:none;" d="M211 80L211 86C211.951 83.7148 211.951 82.2853 211 80z"/>
<path style="fill:#92a7be; stroke:none;" d="M228 80L229 81L228 80z"/>
<path style="fill:#a2b3c7; stroke:none;" d="M232 80L233 81L232 80z"/>
<path style="fill:#6481a2; stroke:none;" d="M240 80L241 81L240 80z"/>
<path style="fill:#45688f; stroke:none;" d="M280 80L281 81L280 80M289 80L290 81L289 80z"/>
<path style="fill:#92a7be; stroke:none;" d="M292 80L293 81L292 80z"/>
<path style="fill:#547598; stroke:none;" d="M231 81L232 82L231 81z"/>
<path style="fill:#45688f; stroke:none;" d="M279 81L280 82L279 81z"/>
<path style="fill:#c1ccda; stroke:none;" d="M289 81L289 84C289.696 82.4463 289.696 82.5537 289 81z"/>
<path style="fill:#92a7be; stroke:none;" d="M227 82L228 83L227 82z"/>
<path style="fill:#738eab; stroke:none;" d="M241 82L242 83L241 82z"/>
<path style="fill:#45688f; stroke:none;" d="M227 83L228 84L227 83z"/>
<path style="fill:#e0e6ec; stroke:none;" d="M241.333 83.6667C241.278 83.7223 241.222 84.7777 241.667 84.3333C241.722 84.2778 241.778 83.2222 241.333 83.6667z"/>
<path style="fill:#c2cdda; stroke:none;" d="M282 83L283 84L282 83z"/>
<path style="fill:#93a8be; stroke:none;" d="M283.667 83.3333C283.222 83.7779 284.278 83.7222 284.333 83.6667C284.778 83.2223 283.722 83.2777 283.667 83.3333z"/>
<path style="fill:#839ab4; stroke:none;" d="M230 84L230 90C230.951 87.7148 230.951 86.2852 230 84z"/>
<path style="fill:#6582a2; stroke:none;" d="M280 84L281 85L280 84M287 84L288 85L287 84z"/>
<path style="fill:#e0e6ec; stroke:none;" d="M288 84C288.545 85.6352 288.365 85.4549 290 86L290 84L288 84z"/>
<path style="fill:#547598; stroke:none;" d="M207.333 85.6667C207.278 85.7223 207.222 86.7778 207.667 86.3333C207.722 86.2778 207.778 85.2222 207.333 85.6667z"/>
<path style="fill:#c1ccda; stroke:none;" d="M283 85C284.506 85.683 285.315 85.8259 287 86C285.494 85.317 284.685 85.1741 283 85z"/>
<path style="fill:#d0d9e3; stroke:none;" d="M226.333 86.6667C226.278 86.7223 226.222 87.7778 226.667 87.3333C226.722 87.2778 226.778 86.2222 226.333 86.6667z"/>
<path style="fill:#6481a2; stroke:none;" d="M281 86L282 87L281 86z"/>
<path style="fill:#ffffff; stroke:none;" d="M282.437 87.0324C277.744 90.2223 282.944 96.9568 287.563 93.8164C292.23 90.6439 286.922 83.9832 282.437 87.0324z"/>
<path style="fill:#6481a2; stroke:none;" d="M277 87L278 88L277 87z"/>
<path style="fill:#a2b3c7; stroke:none;" d="M206 88L207 89L206 88z"/>
<path style="fill:#839ab4; stroke:none;" d="M210 88L211 89L210 88z"/>
<path style="fill:#a2b3c7; stroke:none;" d="M280 88L281 89L280 88M289 88L290 89L289 88z"/>
<path style="fill:#b1c0d0; stroke:none;" d="M241.333 89.6667C241.278 89.7223 241.222 90.7777 241.667 90.3333C241.722 90.2778 241.778 89.2222 241.333 89.6667z"/>
<path style="fill:#c1ccda; stroke:none;" d="M276 89L276 92C276.696 90.4464 276.696 90.5536 276 89z"/>
<path style="fill:#738eab; stroke:none;" d="M205 90L206 91L205 90z"/>
<path style="fill:#a2b3c7; stroke:none;" d="M209 90L210 91L209 90z"/>
<path style="fill:#547598; stroke:none;" d="M227 90L228 91L227 90z"/>
<path style="fill:#a2b3c7; stroke:none;" d="M204 91L205 92L204 91z"/>
<path style="fill:#6481a2; stroke:none;" d="M208 91L209 92L208 91z"/>
<path style="fill:#a2b3c7; stroke:none;" d="M227 91L228 92L227 91z"/>
<path style="fill:#c1ccda; stroke:none;" d="M231 91L232 92L231 91z"/>
<path style="fill:#6481a2; stroke:none;" d="M241 91L242 92L241 91z"/>
<path style="fill:#93a8be; stroke:none;" d="M203 92L204 93L203 92z"/>
<path style="fill:#45688f; stroke:none;" d="M207 92L208 93L207 92z"/>
<path style="fill:#466990; stroke:none;" d="M231 92L232 93L231 92z"/>
<path style="fill:#a2b3c7; stroke:none;" d="M280 92L281 93L280 92z"/>
<path style="fill:#92a7be; stroke:none;" d="M289 92L290 93L289 92z"/>
<path style="fill:#c1ccda; stroke:none;" d="M201 93L202 94L201 93z"/>
<path style="fill:#738eab; stroke:none;" d="M206 93L207 94L206 93z"/>
<path style="fill:#b1c0d0; stroke:none;" d="M228 93L229 94L228 93z"/>
<path style="fill:#6582a2; stroke:none;" d="M232 93L233 94L232 93z"/>
<path style="fill:#355b86; stroke:none;" d="M240.667 93.3333C240.222 93.7777 241.278 93.7222 241.333 93.6667C241.778 93.2222 240.722 93.2778 240.667 93.3333z"/>
<path style="fill:#92a7be; stroke:none;" d="M265 93L266 94L265 93z"/>
<path style="fill:#839ab4; stroke:none;" d="M268 93L269 94L268 93z"/>
<path style="fill:#6582a2; stroke:none;" d="M272.667 93.3333C272.222 93.7778 273.278 93.7222 273.333 93.6667C273.778 93.2223 272.722 93.2777 272.667 93.3333z"/>
<path style="fill:#6481a2; stroke:none;" d="M277 93L278 94L277 93z"/>
<path style="fill:#c2cdda; stroke:none;" d="M197.667 94.3333C197.222 94.7777 198.278 94.7222 198.333 94.6667C198.778 94.2222 197.722 94.2778 197.667 94.3333z"/>
<path style="fill:#748eac; stroke:none;" d="M199 94L200 95L199 94z"/>
<path style="fill:#b1c0d0; stroke:none;" d="M205 94L206 95L205 94z"/>
<path style="fill:#6481a2; stroke:none;" d="M229 94L230 95L229 94z"/>
<path style="fill:#466990; stroke:none;" d="M233 94L234 95L233 94z"/>
<path style="fill:#b2c1d1; stroke:none;" d="M234 94L235 95L234 94M238 94L239 95L238 94z"/>
<path style="fill:#c1ccda; stroke:none;" d="M241 94L242 95L241 94z"/>
<path style="fill:#b1c0d0; stroke:none;" d="M271 94L272 95L271 94z"/>
<path style="fill:#92a7be; stroke:none;" d="M274 94L275 95L274 94z"/>
<path style="fill:#b1c0d0; stroke:none;" d="M287 94L288 95L287 94z"/>
<path style="fill:#a2b3c7; stroke:none;" d="M203 95L204 96L203 95z"/>
<path style="fill:#92a7be; stroke:none;" d="M230 95L231 96L230 95M240 95L241 96L240 95z"/>
<path style="fill:#45688f; stroke:none;" d="M273 95L274 96L273 95z"/>
<path style="fill:#849bb5; stroke:none;" d="M283 95C284.248 95.6848 284.548 95.7488 286 96C284.752 95.3152 284.452 95.2512 283 95z"/>
<path style="fill:#45688f; stroke:none;" d="M188 96C191.163 97.3274 194.586 96.9996 198 97C194.837 95.6726 191.414 96.0004 188 96z"/>
<path style="fill:#839ab4; stroke:none;" d="M198 96C199.248 96.6848 199.548 96.7488 201 97C199.752 96.3152 199.452 96.2512 198 96z"/>
<path style="fill:#738eab; stroke:none;" d="M232 96L233 97L232 96z"/>
<path style="fill:#6481a2; stroke:none;" d="M238 96L239 97L238 96z"/>
<path style="fill:#c1ccda; stroke:none;" d="M239 96L240 97L239 96z"/>
<path style="fill:#45688f; stroke:none;" d="M253 96C254.248 96.6848 254.548 96.7488 256 97C254.752 96.3152 254.452 96.2512 253 96z"/>
<path style="fill:#738eab; stroke:none;" d="M268 96C269.506 96.683 270.315 96.8259 272 97C270.494 96.317 269.685 96.1741 268 96z"/>
<path style="fill:#c1ccda; stroke:none;" d="M272 96L273 97L272 96z"/>
<path style="fill:#839ab4; stroke:none;" d="M280 96L281 97L280 96z"/>
<path style="fill:#6481a2; stroke:none;" d="M286 96L287 97L286 96z"/>
<path style="fill:#c1ccda; stroke:none;" d="M287 96L288 97L287 96z"/>
<path style="fill:#45688f; stroke:none;" d="M290 96C291.248 96.6848 291.548 96.7488 293 97C291.752 96.3152 291.452 96.2512 290 96M300 96C301.248 96.6848 301.548 96.7488 303 97C301.752 96.3152 301.452 96.2512 300 96z"/>
<path style="fill:#b1c0d0; stroke:none;" d="M241.333 99.6667C241.278 99.7223 241.222 100.778 241.667 100.333C241.722 100.278 241.778 99.2222 241.333 99.6667z"/>
<path style="fill:#466990; stroke:none;" d="M230 101L231 102L230 101z"/>
<path style="fill:#738eab; stroke:none;" d="M241 101L242 102L241 101z"/>
<path style="fill:#92a7be; stroke:none;" d="M244 101L245 102L244 101z"/>
<path style="fill:#b3e7f8; stroke:none;" d="M38 102L39 103L38 102z"/>
<path style="fill:#cceffb; stroke:none;" d="M69.6667 102.333C69.2222 102.778 70.2778 102.722 70.3333 102.667C70.7778 102.222 69.7222 102.278 69.6667 102.333z"/>
<path style="fill:#e0e6ec; stroke:none;" d="M228.333 102.667C228.278 102.722 228.222 103.778 228.667 103.333C228.722 103.278 228.778 102.222 228.333 102.667z"/>
<path style="fill:#557599; stroke:none;" d="M231 102L232 103L231 102z"/>
<path style="fill:#6582a2; stroke:none;" d="M232 103L233 104L232 103z"/>
<path style="fill:#b1c0d0; stroke:none;" d="M243 103L244 104L243 103z"/>
<path style="fill:#a6e3f7; stroke:none;" d="M68 104L69 105L68 104z"/>
<path style="fill:#99dff6; stroke:none;" d="M71 104L72 105L71 104z"/>
<path style="fill:#8ddbf5; stroke:none;" d="M100 104L101 105L100 104z"/>
<path style="fill:#b3e7f8; stroke:none;" d="M103 104L104 105L103 104z"/>
<path style="fill:#45688f; stroke:none;" d="M230 104L231 105L230 104z"/>
<path style="fill:#c2cdda; stroke:none;" d="M234 104C235.506 104.683 236.315 104.826 238 105C236.494 104.317 235.685 104.174 234 104z"/>
<path style="fill:#748eac; stroke:none;" d="M238 104L239 105L238 104z"/>
<path style="fill:#a2b3c7; stroke:none;" d="M242 104L243 105L242 104M231 105L232 106L231 105z"/>
<path style="fill:#6481a2; stroke:none;" d="M240 105L241 106L240 105z"/>
<path style="fill:#a2b3c7; stroke:none;" d="M234 106C235.248 106.685 235.548 106.749 237 107C235.752 106.315 235.452 106.251 234 106z"/>
<path style="fill:#d0d9e3; stroke:none;" d="M237.667 106.333C237.222 106.778 238.278 106.722 238.333 106.667C238.778 106.222 237.722 106.278 237.667 106.333z"/>
<path style="fill:#99dff6; stroke:none;" d="M41 107L42 108L41 107M98 107L99 108L98 107z"/>
<path style="fill:#bfebf9; stroke:none;" d="M37.6667 109.333C37.2222 109.778 38.2778 109.722 38.3333 109.667C38.7778 109.222 37.7222 109.278 37.6667 109.333z"/>
<path style="fill:#99dff6; stroke:none;" d="M69.6667 109.333C69.2222 109.778 70.2778 109.722 70.3333 109.667C70.7778 109.222 69.7222 109.278 69.6667 109.333z"/>
<path style="fill:#80d7f4; stroke:none;" d="M101.667 109.333C101.222 109.778 102.278 109.722 102.333 109.667C102.778 109.222 101.722 109.278 101.667 109.333z"/>
<path style="fill:#365c86; stroke:none;" d="M194.667 110.333C194.222 110.778 195.278 110.722 195.333 110.667C195.778 110.222 194.722 110.278 194.667 110.333z"/>
<path style="fill:#08376b; stroke:none;" d="M188 131C189.65 134.086 191.462 136.417 195.004 137.427C200.172 138.9 208.139 136.568 207.663 130C207.053 121.582 195.264 123.845 193.346 116.961C192.245 113.011 197.211 111.565 200 111C194.329 108.989 187.086 114.418 191.028 120.61C193.808 124.977 200.555 124.566 203.338 129.107C205.629 132.846 201.8 136.514 198 136.427C194.105 136.339 191.239 132.688 188 131z"/>
<path style="fill:#355b86; stroke:none;" d="M200 110L200 112C201.635 111.455 201.455 111.635 202 110L200 110z"/>
<path style="fill:#b2c1d1; stroke:none;" d="M202 110L203 111L202 110z"/>
<path style="fill:#45688f; stroke:none;" d="M235 110L235 138L239 138L239 124C237.339 127.959 238 132.737 238 137L236 137L236 111L238 111C238 112.896 237.886 124.544 241 119C237.559 119 239 112.879 239 110L235 110z"/>
<path style="fill:#c1ccda; stroke:none;" d="M306 110L306 138C308.604 131.793 308.604 116.207 306 110z"/>
<path style="fill:#466990; stroke:none;" d="M307 110C308.248 110.685 308.548 110.749 310 111C308.752 110.315 308.452 110.251 307 110z"/>
<path style="fill:#b3e7f8; stroke:none;" d="M36 111L37 112L36 111z"/>
<path style="fill:#a6e3f7; stroke:none;" d="M103 111L104 112L103 111z"/>
<path style="fill:#466990; stroke:none;" d="M192 111L193 112L192 111z"/>
<path style="fill:#547598; stroke:none;" d="M196 111C197.506 111.683 198.315 111.826 200 112C198.494 111.317 197.685 111.174 196 111z"/>
<path style="fill:#08376b; stroke:none;" d="M201 111C202.845 113.166 204.473 114.707 207 116C205.495 112.988 204.24 111.925 201 111z"/>
<path style="fill:#c1ccda; stroke:none;" d="M204 111L205 112L204 111z"/>
<path style="fill:#08376b; stroke:none;" d="M236 111L236 137L238 137C238 131.709 237.664 126.855 240 122C237.996 118.396 238.003 115.052 238 111L236 111M307 111L307 137L310 137L310 111L307 111z"/>
<path style="fill:#99dff6; stroke:none;" d="M40 112L41 113L40 112z"/>
<path style="fill:#8ddbf5; stroke:none;" d="M67 112L68 113L67 112z"/>
<path style="fill:#99dff6; stroke:none;" d="M99 112L100 113L99 112z"/>
<path style="fill:#a2b3c7; stroke:none;" d="M194 112L195 113L194 112z"/>
<path style="fill:#c1ccda; stroke:none;" d="M201 112L202 113L201 112z"/>
<path style="fill:#547598; stroke:none;" d="M202 112L203 113L202 112z"/>
<path style="fill:#a2b3c7; stroke:none;" d="M205 112L206 113L205 112z"/>
<path style="fill:#92a7be; stroke:none;" d="M203 113L204 114L203 113z"/>
<path style="fill:#c1ccda; stroke:none;" d="M206 113L207 114L206 113z"/>
<path style="fill:#99dff6; stroke:none;" d="M34 114L35 115L34 114z"/>
<path style="fill:#b3e7f8; stroke:none;" d="M66 114L67 115L66 114z"/>
<path style="fill:#99dff6; stroke:none;" d="M73 114L74 115L73 114z"/>
<path style="fill:#80d7f4; stroke:none;" d="M105 114L106 115L105 114z"/>
<path style="fill:#a2b3c7; stroke:none;" d="M189 114L190 115L189 114z"/>
<path style="fill:#b1c0d0; stroke:none;" d="M192 114L193 115L192 114z"/>
<path style="fill:#8ddbf5; stroke:none;" d="M97 115L98 116L97 115z"/>
<path style="fill:#45688f; stroke:none;" d="M189 115L189 119C189.71 117.241 189.71 116.759 189 115z"/>
<path style="fill:#839ab4; stroke:none;" d="M204 115L205 116L204 115z"/>
<path style="fill:#a6e3f7; stroke:none;" d="M106 116L107 117L106 116z"/>
<path style="fill:#99dff6; stroke:none;" d="M43 117L44 118L43 117M64 117L65 118L64 117z"/>
<path style="fill:#80d7f4; stroke:none;" d="M75 117L76 118L75 117z"/>
<path style="fill:#b1c0d0; stroke:none;" d="M192 117L193 118L192 117z"/>
<path style="fill:#c2cdda; stroke:none;" d="M221 117C222.506 117.683 223.315 117.826 225 118C223.494 117.317 222.685 117.174 221 117M243 117C244.506 117.683 245.315 117.826 247 118C245.494 117.317 244.685 117.174 243 117M265 117C266.248 117.685 266.548 117.749 268 118C266.752 117.315 266.452 117.251 265 117M289 117C290.248 117.685 290.548 117.749 292 118C290.752 117.315 290.452 117.251 289 117z"/>
<path style="fill:#a3b4c8; stroke:none;" d="M218 118L219 119L218 118z"/>
<path style="fill:#557599; stroke:none;" d="M219 118L220 119L219 118z"/>
<path style="fill:#08376b; stroke:none;" d="M230 134C226.731 135.383 223.369 136.727 220.133 134.396C215.289 130.905 215.591 121.576 222.044 119.886C224.715 119.186 227.595 121.067 230 122C225.596 114.462 213.932 118.722 213.307 127C212.622 136.078 224.616 142.117 230 134z"/>
<path style="fill:#a3b4c8; stroke:none;" d="M227 118L228 119L227 118M241 118L242 119L241 118z"/>
<path style="fill:#08376b; stroke:none;" d="M241 119C242.773 119.71 245.053 120.048 246.401 121.52C249.496 124.899 248 132.742 248 137L251 137C251 129.17 252.995 115.596 241 119z"/>
<path style="fill:#a3b4c8; stroke:none;" d="M248 118L249 119L248 118z"/>
<path style="fill:#93a8be; stroke:none;" d="M262 118L263 119L262 118z"/>
<path style="fill:#08376b; stroke:none;" d="M263.015 118.743C251.653 123.162 258.26 141.728 269.985 137.254C281.349 132.917 274.797 114.161 263.015 118.743z"/>
<path style="fill:#748eac; stroke:none;" d="M270 118L271 119L270 118z"/>
<path style="fill:#a3b4c8; stroke:none;" d="M286 118L287 119L286 118z"/>
<path style="fill:#557599; stroke:none;" d="M287 118L288 119L287 118z"/>
<path style="fill:#08376b; stroke:none;" d="M294 119C294.975 120.94 296.093 122.868 296.584 125.005C296.953 126.61 297.046 128.368 296.768 129.996C294.801 141.518 280.926 133.627 285.18 124.019C285.773 122.679 286.917 121.462 288.084 120.603C289.656 119.447 291.148 119.287 293 119C281.854 114.662 276.266 132.556 287.015 136.99C298.871 141.881 304.84 124.224 294 119z"/>
<path style="fill:#264f7d; stroke:none;" d="M293.333 118.667C293.278 118.722 293.222 119.778 293.667 119.333C293.722 119.278 293.778 118.222 293.333 118.667z"/>
<path style="fill:#748eac; stroke:none;" d="M294 118L295 119L294 118z"/>
<path style="fill:#a6e3f7; stroke:none;" d="M31 119L32 120L31 119z"/>
<path style="fill:#a2b3c7; stroke:none;" d="M189 119L190 120L189 119z"/>
<path style="fill:#c1ccda; stroke:none;" d="M194 119L195 120L194 119z"/>
<path style="fill:#92a7be; stroke:none;" d="M221 119C222.506 119.683 223.315 119.826 225 120C223.494 119.317 222.685 119.174 221 119z"/>
<path style="fill:#547598; stroke:none;" d="M225 119L226 120L225 119z"/>
<path style="fill:#45688f; stroke:none;" d="M243.667 119.333C243.222 119.778 244.278 119.722 244.333 119.667C244.778 119.222 243.722 119.278 243.667 119.333z"/>
<path style="fill:#6582a2; stroke:none;" d="M249 119L250 120L249 119z"/>
<path style="fill:#b1c0d0; stroke:none;" d="M260 119L261 120L260 119z"/>
<path style="fill:#6481a2; stroke:none;" d="M264 119L265 120L264 119z"/>
<path style="fill:#c1ccda; stroke:none;" d="M265 119C266.248 119.685 266.548 119.749 268 120C266.752 119.315 266.452 119.251 265 119z"/>
<path style="fill:#738eab; stroke:none;" d="M268 119L269 120L268 119z"/>
<path style="fill:#a2b3c7; stroke:none;" d="M272 119L273 120L272 119z"/>
<path style="fill:#92a7be; stroke:none;" d="M288.667 119.333C288.222 119.778 289.278 119.722 289.333 119.667C289.778 119.222 288.722 119.278 288.667 119.333z"/>
<path style="fill:#b1c0d0; stroke:none;" d="M290 119C291.248 119.685 291.548 119.749 293 120C291.752 119.315 291.452 119.251 290 119z"/>
<path style="fill:#849bb5; stroke:none;" d="M296 119L297 120L296 119z"/>
<path style="fill:#466990; stroke:none;" d="M195 120L196 121L195 120z"/>
<path style="fill:#c1ccda; stroke:none;" d="M196 120L197 121L196 120M215 120L216 121L215 120z"/>
<path style="fill:#45688f; stroke:none;" d="M219 120L220 121L219 120z"/>
<path style="fill:#c1ccda; stroke:none;" d="M241 120L242 121L241 120z"/>
<path style="fill:#6481a2; stroke:none;" d="M246 120L247 121L246 120z"/>
<path style="fill:#b1c0d0; stroke:none;" d="M250 120L251 121L250 120z"/>
<path style="fill:#a2b3c7; stroke:none;" d="M259 120L260 121L259 120z"/>
<path style="fill:#45688f; stroke:none;" d="M262 120L263 121L262 120z"/>
<path style="fill:#ffffff; stroke:none;" d="M263.434 121.029C257.784 124.866 261.579 140.237 269.686 134.971C275.812 130.992 271.351 115.651 263.434 121.029z"/>
<path style="fill:#6481a2; stroke:none;" d="M270 120L271 121L270 120z"/>
<path style="fill:#6582a2; stroke:none;" d="M273 120L274 121L273 120z"/>
<path style="fill:#a2b3c7; stroke:none;" d="M283 120L284 121L283 120z"/>
<path style="fill:#ffffff; stroke:none;" d="M287.434 121.029C281.751 124.888 285.585 139.965 293.721 134.968C300.538 130.782 295.397 115.62 287.434 121.029z"/>
<path style="fill:#839ab4; stroke:none;" d="M294 120L295 121L294 120z"/>
<path style="fill:#557599; stroke:none;" d="M297 120L298 121L297 120z"/>
<path style="fill:#93a8be; stroke:none;" d="M198 121L199 122L198 121z"/>
<path style="fill:#45688f; stroke:none;" d="M218 121L219 122L218 121z"/>
<path style="fill:#839ab4; stroke:none;" d="M230 121L228 122C229.482 122.791 230.796 122.87 230 121z"/>
<path style="fill:#45688f; stroke:none;" d="M247 121L248 122L247 121z"/>
<path style="fill:#b1c0d0; stroke:none;" d="M258 121L259 122L258 121z"/>
<path style="fill:#547598; stroke:none;" d="M271 121L272 122L271 121z"/>
<path style="fill:#839ab4; stroke:none;" d="M274 121L275 122L274 121z"/>
<path style="fill:#738eab; stroke:none;" d="M295 121L296 122L295 121z"/>
<path style="fill:#6582a2; stroke:none;" d="M298 121L299 122L298 121z"/>
<path style="fill:#547598; stroke:none;" d="M192 122L193 123L192 122z"/>
<path style="fill:#466990; stroke:none;" d="M200 122L201 123L200 122z"/>
<path style="fill:#a3b4c8; stroke:none;" d="M201 122L202 123L201 122z"/>
<path style="fill:#466990; stroke:none;" d="M214 122L215 123L214 122z"/>
<path style="fill:#a2b3c7; stroke:none;" d="M239 122L240 123L239 122z"/>
<path style="fill:#b1c0d0; stroke:none;" d="M247 122L248 123L247 122z"/>
<path style="fill:#c1ccda; stroke:none;" d="M261 122L262 123L261 122z"/>
<path style="fill:#a2b3c7; stroke:none;" d="M285 122L286 123L285 122z"/>
<path style="fill:#b1c0d0; stroke:none;" d="M299 122L300 123L299 122z"/>
<path style="fill:#cdf0fb; stroke:none;" d="M23 123C30.879 126.306 43.4661 124 52 124L117 124C109.121 120.694 96.5339 123 88 123L23 123z"/>
<path style="fill:#c1ccda; stroke:none;" d="M193 123L194 124L193 123z"/>
<path style="fill:#45688f; stroke:none;" d="M194 123L195 124L194 123z"/>
<path style="fill:#849bb5; stroke:none;" d="M203 123L204 124L203 123z"/>
<path style="fill:#c1ccda; stroke:none;" d="M213 123L214 124L213 123z"/>
<path style="fill:#839ab4; stroke:none;" d="M217 123L218 124L217 123z"/>
<path style="fill:#c1ccda; stroke:none;" d="M251 123L251 138C252.74 133.852 252.74 127.148 251 123z"/>
<path style="fill:#839ab4; stroke:none;" d="M257 123L258 124L257 123z"/>
<path style="fill:#92a7be; stroke:none;" d="M272.333 123.667C272.278 123.722 272.222 124.778 272.667 124.333C272.722 124.278 272.778 123.222 272.333 123.667z"/>
<path style="fill:#6481a2; stroke:none;" d="M275 123L276 124L275 123z"/>
<path style="fill:#a2b3c7; stroke:none;" d="M281 123L282 124L281 123z"/>
<path style="fill:#738eab; stroke:none;" d="M296 123L297 124L296 123z"/>
<path style="fill:#cceffb; stroke:none;" d="M22 124L22 131L17 131C19.0521 131.874 20.7472 131.953 23 132C22.9928 129.165 23.0977 126.613 22 124z"/>
<path style="fill:#35c0ed; stroke:none;" d="M23 124L23 132L18 132L18 143L123 143L123 132L117 132L117 124L23 124z"/>
<path style="fill:#cceffb; stroke:none;" d="M117 124L117 132L123 132C121.231 131.221 119.964 131.088 118 131C117.981 128.457 117.985 126.332 117 124z"/>
<path style="fill:#738eab; stroke:none;" d="M196 124L197 125L196 124M213 124L214 125L213 124z"/>
<path style="fill:#c1ccda; stroke:none;" d="M260 124L260 131C261.059 128.466 261.059 126.534 260 124z"/>
<path style="fill:#839ab4; stroke:none;" d="M284 124L284 127C284.696 125.446 284.696 125.554 284 124z"/>
<path style="fill:#c1ccda; stroke:none;" d="M300 124L301 125L300 124z"/>
<path style="fill:#b1c0d0; stroke:none;" d="M198 125L199 126L198 125z"/>
<path style="fill:#6481a2; stroke:none;" d="M199 125L200 126L199 125z"/>
<path style="fill:#c1ccda; stroke:none;" d="M256 125L257 126L256 125z"/>
<path style="fill:#e0e6ec; stroke:none;" d="M272.333 125.667C272.278 125.722 272.222 126.778 272.667 126.333C272.722 126.278 272.778 125.222 272.333 125.667z"/>
<path style="fill:#839ab4; stroke:none;" d="M276.333 125.667C276.278 125.722 276.222 126.778 276.667 126.333C276.722 126.278 276.778 125.222 276.333 125.667M300 125L301 126L300 125z"/>
<path style="fill:#6481a2; stroke:none;" d="M201 126L202 127L201 126z"/>
<path style="fill:#45688f; stroke:none;" d="M216 126L216 130C216.71 128.241 216.71 127.759 216 126z"/>
<path style="fill:#839ab4; stroke:none;" d="M256 126L256 130C256.71 128.24 256.71 127.759 256 126z"/>
<path style="fill:#a2b3c7; stroke:none;" d="M280 126L280 130C280.71 128.24 280.71 127.76 280 126z"/>
<path style="fill:#45688f; stroke:none;" d="M300 126L300 130C300.71 128.24 300.71 127.759 300 126z"/>
<path style="fill:#cdf0fb; stroke:none;" d="M26 127L26 132L114 132L114 127C113.317 128.506 113.174 129.315 113 131L27 131C26.8259 129.315 26.683 128.506 26 127z"/>
<path style="fill:#ffffff; stroke:none;" d="M27 127L27 131L113 131L113 127L27 127z"/>
<path style="fill:#6481a2; stroke:none;" d="M207 127L208 128L207 127M276 127L276 130C276.696 128.446 276.696 128.554 276 127z"/>
<path style="fill:#c1ccda; stroke:none;" d="M284 127L284 130C284.696 128.446 284.696 128.554 284 127z"/>
<path style="fill:#a2b3c7; stroke:none;" d="M204 129L205 130L204 129z"/>
<path style="fill:#c1ccda; stroke:none;" d="M208 129L208 132C208.696 130.446 208.696 130.554 208 129M272 129L272 132C272.696 130.446 272.696 130.554 272 129z"/>
<path style="fill:#c2cdda; stroke:none;" d="M188 130C189.248 130.685 189.548 130.749 191 131C189.752 130.315 189.452 130.251 188 130z"/>
<path style="fill:#45688f; stroke:none;" d="M213 130L214 131L213 130z"/>
<path style="fill:#a2b3c7; stroke:none;" d="M276 130L277 131L276 130z"/>
<path style="fill:#547598; stroke:none;" d="M284.333 130.667C284.278 130.722 284.222 131.778 284.667 131.333C284.722 131.278 284.778 130.222 284.333 130.667z"/>
<path style="fill:#839ab4; stroke:none;" d="M300 130L301 131L300 130z"/>
<path style="fill:#45688f; stroke:none;" d="M190 131L191 132L190 131z"/>
<path style="fill:#92a7be; stroke:none;" d="M213 131L214 132L213 131z"/>
<path style="fill:#738eab; stroke:none;" d="M260 131L261 132L260 131z"/>
<path style="fill:#c1ccda; stroke:none;" d="M296 131L297 132L296 131z"/>
<path style="fill:#66cff1; stroke:none;" d="M17 132L17 143C18.4309 139.59 18.4309 135.41 17 132z"/>
<path style="fill:#6481a2; stroke:none;" d="M188 132L189 133L188 132M217 132L218 133L217 132z"/>
<path style="fill:#839ab4; stroke:none;" d="M257 132L258 133L257 132z"/>
<path style="fill:#547598; stroke:none;" d="M272 132L273 133L272 132z"/>
<path style="fill:#6481a2; stroke:none;" d="M275 132L276 133L275 132z"/>
<path style="fill:#a2b3c7; stroke:none;" d="M281 132L282 133L281 132z"/>
<path style="fill:#738eab; stroke:none;" d="M296 132L297 133L296 132z"/>
<path style="fill:#45688f; stroke:none;" d="M299 132L300 133L299 132z"/>
<path style="fill:#c1ccda; stroke:none;" d="M188 133L189 134L188 133z"/>
<path style="fill:#839ab4; stroke:none;" d="M191 133L192 134L191 133z"/>
<path style="fill:#b1c0d0; stroke:none;" d="M204 133L205 134L204 133z"/>
<path style="fill:#6481a2; stroke:none;" d="M207 133L208 134L207 133z"/>
<path style="fill:#738eab; stroke:none;" d="M214 133L215 134L214 133z"/>
<path style="fill:#c1ccda; stroke:none;" d="M261 133L262 134L261 133z"/>
<path style="fill:#a2b3c7; stroke:none;" d="M285 133L286 134L285 133z"/>
<path style="fill:#c1ccda; stroke:none;" d="M299 133L300 134L299 133z"/>
<path style="fill:#6481a2; stroke:none;" d="M189 134L190 135L189 134z"/>
<path style="fill:#a2b3c7; stroke:none;" d="M192 134L193 135L192 134z"/>
<path style="fill:#c1ccda; stroke:none;" d="M228 134L229 135L228 134M258 134L259 135L258 134z"/>
<path style="fill:#466990; stroke:none;" d="M271 134L272 135L271 134z"/>
<path style="fill:#92a7be; stroke:none;" d="M274 134L275 135L274 134z"/>
<path style="fill:#6582a2; stroke:none;" d="M295 134L296 135L295 134z"/>
<path style="fill:#738eab; stroke:none;" d="M298 134L299 135L298 134z"/>
<path style="fill:#99dff6; stroke:none;" d="M20 135L20 140C20.8299 137.97 20.8299 137.03 20 135z"/>
<path style="fill:#ffffff; stroke:none;" d="M21 135L21 139L119 139L119 135L21 135z"/>
<path style="fill:#99dff6; stroke:none;" d="M119 135L119 140C119.83 137.97 119.83 137.03 119 135z"/>
<path style="fill:#6481a2; stroke:none;" d="M190 135L191 136L190 135z"/>
<path style="fill:#6582a2; stroke:none;" d="M193 135L194 136L193 135z"/>
<path style="fill:#a3b4c8; stroke:none;" d="M202 135L203 136L202 135z"/>
<path style="fill:#6582a2; stroke:none;" d="M220 135L221 136L220 135z"/>
<path style="fill:#c2cdda; stroke:none;" d="M221 135L222 136L221 135z"/>
<path style="fill:#b2c1d1; stroke:none;" d="M226 135L227 136L226 135z"/>
<path style="fill:#466990; stroke:none;" d="M227 135L228 136L227 135z"/>
<path style="fill:#92a7be; stroke:none;" d="M230 135L231 136L230 135z"/>
<path style="fill:#a2b3c7; stroke:none;" d="M259 135L260 136L259 135z"/>
<path style="fill:#466990; stroke:none;" d="M270 135L271 136L270 135z"/>
<path style="fill:#839ab4; stroke:none;" d="M273 135L274 136L273 135z"/>
<path style="fill:#c1ccda; stroke:none;" d="M287 135L288 136L287 135z"/>
<path style="fill:#6582a2; stroke:none;" d="M294 135L295 136L294 135z"/>
<path style="fill:#6481a2; stroke:none;" d="M297 135L298 136L297 135z"/>
<path style="fill:#a2b3c7; stroke:none;" d="M191 136L192 137L191 136z"/>
<path style="fill:#748eac; stroke:none;" d="M196 136C197.769 136.779 199.036 136.912 201 137C199.231 136.221 197.964 136.088 196 136z"/>
<path style="fill:#45688f; stroke:none;" d="M204 136L205 137L204 136z"/>
<path style="fill:#6481a2; stroke:none;" d="M217 136L218 137L217 136z"/>
<path style="fill:#45688f; stroke:none;" d="M228 136L229 137L228 136z"/>
<path style="fill:#c1ccda; stroke:none;" d="M229 136L230 137L229 136z"/>
<path style="fill:#466990; stroke:none;" d="M264 136L265 137L264 136z"/>
<path style="fill:#849bb5; stroke:none;" d="M265 136C266.506 136.683 267.315 136.826 269 137C267.494 136.317 266.685 136.174 265 136z"/>
<path style="fill:#b1c0d0; stroke:none;" d="M272 136L273 137L272 136z"/>
<path style="fill:#45688f; stroke:none;" d="M285 136L286 137L285 136z"/>
<path style="fill:#849bb5; stroke:none;" d="M289 136C290.506 136.683 291.315 136.826 293 137C291.494 136.317 290.685 136.174 289 136z"/>
<path style="fill:#839ab4; stroke:none;" d="M296 136L297 137L296 136z"/>
<path style="fill:#a2b3c7; stroke:none;" d="M193 137L194 138L193 137z"/>
<path style="fill:#547598; stroke:none;" d="M194 137L195 138L194 137z"/>
<path style="fill:#6481a2; stroke:none;" d="M202 137L203 138L202 137z"/>
<path style="fill:#c1ccda; stroke:none;" d="M203 137L204 138L203 137M218 137L219 138L218 137z"/>
<path style="fill:#6481a2; stroke:none;" d="M219 137L220 138L219 137M226 137L227 138L226 137z"/>
<path style="fill:#c1ccda; stroke:none;" d="M227 137L228 138L227 137z"/>
<path style="fill:#45688f; stroke:none;" d="M248 137C249.248 137.685 249.548 137.749 251 138C249.752 137.315 249.452 137.251 248 137z"/>
<path style="fill:#a2b3c7; stroke:none;" d="M262 137L263 138L262 137z"/>
<path style="fill:#547598; stroke:none;" d="M263 137L264 138L263 137z"/>
<path style="fill:#92a7be; stroke:none;" d="M270 137L271 138L270 137z"/>
<path style="fill:#c1ccda; stroke:none;" d="M286 137L287 138L286 137z"/>
<path style="fill:#547598; stroke:none;" d="M287 137L288 138L287 137z"/>
<path style="fill:#839ab4; stroke:none;" d="M294 137L295 138L294 137z"/>
<path style="fill:#45688f; stroke:none;" d="M307 137C308.248 137.685 308.548 137.749 310 138C308.752 137.315 308.452 137.251 307 137z"/>
<path style="fill:#cdf0fb; stroke:none;" d="M21 139C29.1183 142.407 42.2032 140 51 140L119 140C110.882 136.593 97.7968 139 89 139L21 139z"/>
</svg>
